<?xml version="1.0" encoding="utf-8"?>
<!-- Generator: Adobe Illustrator 16.0.0, SVG Export Plug-In . SVG Version: 6.00 Build 0)  -->
<!DOCTYPE svg PUBLIC "-//W3C//DTD SVG 1.1//EN" "http://www.w3.org/Graphics/SVG/1.1/DTD/svg11.dtd">
<svg version="1.1" id="Layer_1" xmlns="http://www.w3.org/2000/svg" xmlns:xlink="http://www.w3.org/1999/xlink" x="0px" y="0px"
	 width="10647.482px" height="3477.218px" viewBox="-6162.992 -1571.726 10647.482 3477.218"
	 enable-background="new -6162.992 -1571.726 10647.482 3477.218" xml:space="preserve">
<title>iohk</title>
<desc>Created with Sketch.</desc>
<g id="Page-1">
	<g id="Artboard" transform="translate(-277.000000, -272.000000)">
		<g id="IOHK-logo" transform="translate(277.000000, 271.000000)">
			<g id="iohk" transform="translate(0.000000, 0.890000)">
				<polygon id="Fill-27" fill="#EC1C24" points="-2042.593,519.197 -1977.174,519.197 -1977.174,-26.451 -2042.593,-26.451 				"/>
				<polygon id="Fill-29" fill="#EC1C24" points="593.382,839.827 658.771,839.827 658.771,-347.001 593.382,-347.001 				"/>
				<path id="Fill-30" fill="#EC1C24" d="M-1431.475,417.857l2.344-0.765c-3.641-12.48-5.43-24.904-5.43-37.334V-26.422h65.441
					v545.515h-65.441l-285.366-437.987l-2.291,0.791c3.669,12.403,5.482,24.907,5.482,37.324v399.872h-65.595V-26.422h65.595
					L-1431.475,417.857z"/>
				<path id="Fill-31" fill="#EC1C24" d="M-1108.789,28.142v218.342h194.206c9.321,0,15.234-0.481,17.877-1.318
					c2.569-0.766,6.262-3.006,10.9-6.571c4.711-3.641,7.362-6.62,8.195-9.018c0.767-2.339,1.194-7.405,1.194-15.115V60.096
					c0-7.814-0.427-12.931-1.194-15.275c-0.833-2.391-3.484-5.321-8.195-9.011c-4.638-3.49-8.331-5.807-10.9-6.522
					c-2.643-0.785-8.556-1.146-17.877-1.146H-1108.789z M-1108.789,300.925v218.167h-65.388V-26.471h288.371
					c12.468,0,24.92,5.269,37.454,15.609l18.666,15.527c12.431,10.493,18.632,23.478,18.632,39.012v187.152
					c0,15.655-6.202,28.496-18.632,38.957l-18.666,15.66c-12.534,10.389-24.986,15.479-37.454,15.479H-1108.789z"/>
				<path id="Fill-32" fill="#EC1C24" d="M-286.411-26.451h65.541v475.525c0,15.525-6.267,28.568-18.697,38.957l-18.682,15.583
					c-12.534,10.389-25.004,15.583-37.433,15.583h-265.117c-12.48,0-24.853-5.194-37.379-15.583l-18.691-15.583
					c-12.48-10.389-18.695-23.432-18.695-38.957V-26.451h65.496v459.172c0,7.641,0.307,12.735,1.124,15.072
					c0.818,2.55,3.46,5.449,8.146,9.118c4.731,3.52,8.353,5.861,10.898,6.626c2.644,0.661,8.654,1.062,17.977,1.062h207.414
					c9.274,0,15.281-0.4,17.832-1.062c2.592-0.765,6.313-3.106,10.997-6.626c4.638-3.669,7.392-6.568,8.146-9.118
					c0.766-2.337,1.125-7.432,1.125-15.072V-26.451z"/>
				<polygon id="Fill-33" fill="#EC1C24" points="-108.632,-26.451 303.007,-26.451 303.007,28.142 129.86,28.142 129.86,519.197 
					64.364,519.197 64.364,28.142 -108.632,28.142 				"/>
				<path id="Fill-34" d="M1354.568,432.622V60.047c0-7.766-0.564-12.882-1.165-15.227c-0.871-2.29-3.618-5.218-8.252-8.959
					c-4.688-3.568-8.358-5.858-11.008-6.522c-2.544-0.837-8.556-1.271-17.813-1.271h-227.646c-9.372,0-15.27,0.435-17.93,1.271
					c-2.591,0.664-6.307,2.954-10.893,6.522c-4.684,3.741-7.38,6.669-8.251,8.959c-0.718,2.345-1.163,7.461-1.163,15.227v372.574
					c0,7.74,0.445,12.934,1.163,15.172c0.871,2.55,3.567,5.449,8.251,9.066c4.586,3.571,8.302,5.757,10.893,6.627
					c2.66,0.712,8.558,1.06,17.93,1.06h227.646c9.258,0,15.27-0.348,17.813-1.06c2.649-0.87,6.319-3.056,11.008-6.627
					c4.634-3.617,7.381-6.517,8.252-9.066C1354.004,445.555,1354.568,440.362,1354.568,432.622 M1059.861-26.471h285.29
					c12.523,0,24.906,5.269,37.428,15.556l18.696,15.629c12.417,10.365,18.682,23.354,18.682,38.962v405.397
					c0,15.473-6.265,28.517-18.682,38.957l-18.696,15.583c-12.521,10.44-24.904,15.583-37.428,15.583h-285.29
					c-12.521,0-24.898-5.143-37.472-15.583l-18.749-15.583c-12.371-10.44-18.638-23.484-18.638-38.957V43.676
					c0-15.608,6.267-28.598,18.638-38.962l18.749-15.629C1034.963-21.202,1047.341-26.471,1059.861-26.471"/>
				<path id="Fill-35" d="M1964.003-26.451h65.646v475.525c0,15.525-6.267,28.568-18.8,38.957l-18.638,15.583
					c-12.58,10.389-24.95,15.583-37.582,15.583h-265.015c-12.382,0-24.747-5.194-37.385-15.583l-18.684-15.583
					c-12.429-10.389-18.695-23.432-18.695-38.957V-26.451h65.489v459.172c0,7.641,0.412,12.735,1.178,15.072
					c0.857,2.55,3.506,5.449,8.097,9.118c4.731,3.52,8.35,5.861,10.998,6.626c2.544,0.661,8.557,1.062,17.931,1.062h207.465
					c9.27,0,15.179-0.4,17.723-1.062c2.648-0.765,6.317-3.106,10.898-6.626c4.782-3.669,7.53-6.568,8.249-9.118
					c0.818-2.337,1.125-7.432,1.125-15.072V-26.451z"/>
				<polygon id="Fill-36" points="2141.834,-26.451 2553.42,-26.451 2553.42,28.142 2380.371,28.142 2380.371,519.197 
					2314.882,519.197 2314.882,28.142 2141.834,28.142 				"/>
				<path id="Fill-37" d="M2731.918,28.142v218.342h194.173c9.271,0,15.281-0.481,17.815-1.318
					c2.661-0.766,6.318-3.006,10.909-6.571c4.684-3.641,7.433-6.62,8.145-9.018c0.819-2.339,1.23-7.405,1.23-15.115V60.096
					c0-7.814-0.411-12.931-1.23-15.275c-0.712-2.391-3.461-5.321-8.145-9.011c-4.591-3.49-8.248-5.807-10.909-6.522
					c-2.534-0.785-8.544-1.146-17.815-1.146H2731.918z M2731.918,300.925v218.167h-65.442V-26.471h288.34
					c12.522,0,24.951,5.269,37.38,15.609l18.736,15.527c12.521,10.493,18.788,23.478,18.788,39.012v187.152
					c0,15.655-6.267,28.496-18.788,38.957l-18.736,15.66c-12.429,10.389-24.857,15.479-37.38,15.479H2731.918z"/>
				<path id="Fill-38" d="M3554.211-26.451h65.593v475.525c0,15.525-6.214,28.568-18.747,38.957l-18.684,15.583
					c-12.534,10.389-24.904,15.583-37.536,15.583h-265.014c-12.429,0-24.853-5.194-37.386-15.583l-18.683-15.583
					c-12.431-10.389-18.696-23.432-18.696-38.957V-26.451h65.489v459.172c0,7.641,0.412,12.735,1.178,15.072
					c0.759,2.55,3.517,5.449,8.098,9.118c4.782,3.52,8.347,5.861,11.05,6.626c2.546,0.661,8.504,1.062,17.877,1.062h207.361
					c9.323,0,15.281-0.4,17.827-1.062c2.649-0.765,6.319-3.106,10.898-6.626c4.782-3.669,7.489-6.568,8.354-9.118
					c0.661-2.337,1.021-7.432,1.021-15.072V-26.451z"/>
				<polygon id="Fill-39" points="3732.043,-26.451 4143.629,-26.451 4143.629,28.142 3970.475,28.142 3970.475,519.197 
					3905.09,519.197 3905.09,28.142 3732.043,28.142 				"/>
				<path id="Fill-40" fill="#EC1C24" d="M-5756.757,1387.993c-37.87,0-68.574-30.661-68.574-68.603
					c0-37.728,30.704-68.394,68.574-68.394c31.492,0,58.054,21.396,66.022,50.422c0,0.453-0.052,0.76-0.052,1.27
					c0,2.598,0.666,5.038,1.812,7.189c0.429,3.094,0.684,6.307,0.684,9.513C-5688.291,1357.332-5718.999,1387.993-5756.757,1387.993
					 M-5578.317,1085.443c-37.786,0-68.571-30.708-68.571-68.603c0-37.733,30.785-68.44,68.571-68.44
					c37.765,0,68.472,30.707,68.472,68.44C-5509.845,1054.735-5540.553,1085.443-5578.317,1085.443 M-5384.42,798.372
					c-37.759,0-68.516-30.713-68.516-68.446c0-37.883,30.756-68.591,68.516-68.591c37.817,0,68.577,30.708,68.577,68.591
					C-5315.843,767.659-5346.603,798.372-5384.42,798.372 M-5205.974,526.883c-37.861,0-68.568-30.708-68.568-68.389
					c0-37.89,30.707-68.747,68.568-68.747c33.179,0,60.857,23.721,67.174,55.194c-0.89,1.837-1.247,3.929-1.247,6.011
					c0,3.055,0.89,6.064,2.443,8.504C-5138.064,496.791-5168.644,526.883-5205.974,526.883 M-4957.863,312.334
					c-37.732,0-68.419-30.807-68.419-68.447c0-37.86,30.687-68.695,68.419-68.695c37.864,0,68.601,30.835,68.601,68.695
					C-4889.262,281.527-4919.999,312.334-4957.863,312.334 M-5138.8,47.801c-6.316,31.344-33.995,55.074-67.174,55.074
					c-37.861,0-68.568-30.706-68.568-68.568c0-37.811,30.707-68.419,68.568-68.419c37.331,0,67.91,30.046,68.371,67.327
					c-1.554,2.392-2.443,5.467-2.443,8.605C-5140.047,44.059-5139.69,45.992-5138.8,47.801 M-5384.42-168.607
					c-37.759,0-68.516-30.708-68.516-68.418c0-37.968,30.756-68.674,68.516-68.674c37.817,0,68.577,30.707,68.577,68.674
					C-5315.843-199.314-5346.603-168.607-5384.42-168.607 M-5578.317-455.676c-37.786,0-68.571-30.661-68.571-68.472
					c0-37.811,30.785-68.62,68.571-68.62c37.765,0,68.472,30.809,68.472,68.62C-5509.845-486.336-5540.553-455.676-5578.317-455.676
					 M-5689.181-815.924c-5.223,32.588-33.486,57.774-67.576,57.774c-37.87,0-68.574-30.809-68.574-68.574
					c0-37.785,30.704-68.574,68.574-68.574c36.281,0,66.022,28.519,68.26,64.247c-1.45,2.339-2.29,5.17-2.29,8.298
					C-5690.787-820.308-5690.172-818.114-5689.181-815.924 M-5656.103-838.234c-5.753-49.498-48.762-88.025-99.765-88.025
					c-54.974,0-99.967,44.641-99.967,99.536c0,54.928,44.327,99.562,99.231,99.562c48.246,0,88.506-34.426,97.521-80.051
					c727.427,6.31,1322.114,436.481,1369.236,977.77c-38.31-74.351-111.85-196.806-231.681-320.501
					c-173.118-178.7-479.137-391.673-953.437-391.673c-1.854,0-3.689,0.359-5.295,1.049c-7.84-47.211-48.76-83.193-98.058-83.193
					c-54.948,0-99.583,44.689-99.583,99.614c0,54.849,44.635,99.588,99.583,99.588c50.495,0,92.303-37.992,98.57-86.884
					c1.578,0.539,3.082,0.794,4.783,0.794c462.891,0,761.264,207.342,930.193,381.253
					c108.444,111.757,178.843,224.402,218.597,298.124c-51.847-46.554-131.773-112.934-232.327-178.753
					c-168.692-110.51-431.775-242.025-727.678-242.381c-7.464-47.667-48.537-84.333-98.241-84.333
					c-54.974,0-99.605,44.64-99.605,99.715c0,54.873,44.631,99.456,99.605,99.456c49.481,0,90.574-36.36,98.136-83.876
					c441.958,0.639,816.347,301.178,950.663,423.703c-148.934-53.393-504.729-170.781-771.226-175.77
					c-3.997-51.284-46.927-91.641-99.127-91.641c-55.026,0-99.658,44.537-99.658,99.46c0,54.948,44.631,99.584,99.658,99.584
					c46.878,0,86.244-35.543,96.683-79.192c263.237,4.433,618.369,123.473,764.911,171.925h-402.695h-111.916
					c-5.78-48.452-47.817-85.146-98.873-85.146c-54.794,0-99.483,46.035-99.483,100.939c0,54.844,44.689,98.025,99.483,98.025
					c48.305,0,88.713-33.351,97.728-81.527h113.061h395.334c-150.539,64.42-498.412,169.788-757.551,174.217
					c-10.439-43.745-49.805-75.426-96.683-75.426c-55.026,0-99.658,45.171-99.658,100.075c0,54.996,44.631,99.866,99.658,99.866
					c52.2,0,95.13-40.383,99.127-91.414c266.497-5.143,622.292-122.376,771.226-175.895
					c-134.316,122.625-508.706,423.187-950.663,423.696c-7.562-47.356-48.655-83.663-98.136-83.663
					c-54.974,0-99.605,44.504-99.605,99.553c0,54.951,44.631,99.512,99.605,99.512c49.704,0,90.776-36.567,98.241-84.335
					c295.903-0.308,558.985-131.895,727.678-242.353c102.414-67.02,183.462-134.603,235.024-181.246
					c-38.883,73.333-109.824,188.121-220.436,302.294c-168.95,174.268-467.599,382.15-931.052,382.15
					c-1.498,0-2.948,0.301-4.426,0.713c-5.148-50.063-47.542-89.327-98.927-89.327c-54.948,0-99.583,44.608-99.583,99.507
					c0,55.009,44.635,99.716,99.583,99.716c48.353,0,88.768-34.835,97.628-80.771c1.829,0.817,3.768,1.17,5.724,1.17
					c474.3,0,780.267-212.973,953.284-391.668c117.942-121.611,191.068-242.149,229.884-316.764
					c-59.464,532.891-650.506,953.637-1370.876,958.535c-13.52-39.061-50.594-67.229-94.083-67.229
					c-54.902,0-99.615,44.719-99.615,99.56c0,54.956,44.713,99.663,99.615,99.663c54.921,0,99.555-44.707,99.555-99.663
					c0-0.36,2.09-0.754,2.09-1.472c769.182-7.184,1386.864-481.455,1402.983-1065.852v-12.146
					C-4252.129-350.128-4881.448-831.051-5656.103-838.234"/>
				<path id="Fill-41" d="M-3326.226,459.509c1.577-2.492,2.598-5.449,2.598-8.557c0-2.035-0.462-4.174-1.299-6.011
					c6.319-31.474,34.02-55.194,67.271-55.194c37.708,0,68.476,30.857,68.476,68.694c0,37.733-30.768,68.493-68.476,68.493
					C-3295.18,526.935-3325.59,496.791-3326.226,459.509L-3326.226,459.509z M-3324.927,47.775c0.837-1.835,1.299-3.92,1.299-6.006
					c0-3.055-1.021-6.143-2.598-8.605c0.636-37.331,31.046-67.328,68.57-67.328c37.708,0,68.476,30.681,68.476,68.472
					c0,37.812-30.768,68.568-68.476,68.568C-3290.907,102.876-3318.608,79.172-3324.927,47.775L-3324.927,47.775z
					 M-2775.485,1319.338c0-3.153,0.253-6.405,0.735-9.46c1.194-2.099,1.81-4.492,1.81-7.137c0-0.563-0.052-0.91-0.052-1.269
					c7.893-29.079,34.53-50.476,66.023-50.476c37.863,0,68.57,30.666,68.57,68.341c0,37.994-30.708,68.702-68.57,68.702
					C-2744.779,1388.04-2775.485,1357.332-2775.485,1319.338L-2775.485,1319.338z M-2953.879,1016.84
					c0-37.682,30.707-68.44,68.515-68.44c37.812,0,68.581,30.759,68.581,68.44c0,37.895-30.77,68.654-68.581,68.654
					C-2923.172,1085.495-2953.879,1054.735-2953.879,1016.84L-2953.879,1016.84z M-3147.832,729.978
					c0-37.936,30.739-68.597,68.519-68.597c37.76,0,68.579,30.661,68.579,68.597c0,37.635-30.819,68.394-68.579,68.394
					C-3117.093,798.372-3147.832,767.613-3147.832,729.978L-3147.832,729.978z M-3574.486,243.785
					c0-37.779,30.708-68.566,68.519-68.566c37.841,0,68.62,30.787,68.62,68.566c0,37.795-30.779,68.549-68.62,68.549
					C-3543.778,312.334-3574.486,281.58-3574.486,243.785L-3574.486,243.785z M-3147.832-237.157
					c0-37.813,30.739-68.542,68.519-68.542c37.76,0,68.579,30.729,68.579,68.542c0,37.791-30.819,68.573-68.579,68.573
					C-3117.093-168.584-3147.832-199.367-3147.832-237.157L-3147.832-237.157z M-2953.879-524.2c0-37.733,30.707-68.62,68.515-68.62
					c37.812,0,68.581,30.887,68.581,68.62c0,37.811-30.77,68.524-68.581,68.524C-2923.172-455.676-2953.879-486.389-2953.879-524.2
					L-2953.879-524.2z M-2774.597-815.903c1.095-2.188,1.656-4.374,1.656-6.901c0-3.108-0.769-5.827-2.391-8.221
					c2.238-35.774,32.035-64.241,68.362-64.241c37.863,0,68.57,30.706,68.57,68.569c0,37.759-30.708,68.466-68.57,68.466
					C-2741.059-758.231-2769.322-783.306-2774.597-815.903L-2774.597-815.903z M-4203.778,252.042
					c16.118,584.422,629.907,1058.642,1399.038,1065.877c0,0.718-0.992,1.065-0.992,1.419c0,55.009,44.322,99.664,99.174,99.664
					c54.921,0,99.408-44.655,99.408-99.664c0-54.788-44.847-99.507-99.717-99.507c-43.536,0-80.559,28.208-94.063,67.229
					c-720.371-4.95-1311.589-425.645-1370.968-958.581c38.782,74.707,111.91,195.198,229.75,316.81
					c173.15,178.649,479.03,391.622,953.43,391.622c1.942,0,3.843-0.307,5.584-1.124c8.912,45.936,49.317,80.823,97.769,80.823
					c54.905,0,99.567-44.812,99.567-99.769c0-54.898-44.662-99.553-99.567-99.553c-51.405,0-93.926,39.257-99.02,89.321
					c-1.429-0.405-2.881-0.661-4.333-0.661c-463.492,0-762.2-207.831-931.146-382.201
					c-110.612-114.122-181.431-228.91-220.438-302.243c51.612,46.644,132.713,114.278,235.075,181.299
					c168.743,110.353,431.896,241.992,727.681,242.353c7.359,47.762,48.554,84.282,98.231,84.282
					c54.921,0,99.614-44.613,99.614-99.459c0-55.05-44.693-99.658-99.614-99.658c-49.524,0-90.565,36.255-98.183,83.716
					c-441.8-0.614-816.314-301.176-950.66-423.801c148.933,53.472,504.902,170.7,771.274,175.691
					c4.018,51.235,46.931,91.565,99.226,91.565c54.82,0,99.51-45.321,99.51-100.115c0-54.905-44.689-100.736-99.51-100.736
					c-47.03,0-86.343,32.695-96.833,76.492c-259.002-4.48-606.856-109.797-757.495-174.321h395.282h113.116
					c9.054,48.432,49.369,81.226,97.619,81.226c54.849,0,99.583-42.725,99.583-97.599c0-54.974-44.733-100.605-99.583-100.605
					c-50.947,0-93.04,36.313-98.878,84.744h-111.857h-402.593c146.492-48.432,501.573-167.495,764.806-171.926
					c10.49,43.697,49.803,80.21,96.833,80.21c54.82,0,99.51-45.118,99.51-100.022c0-54.974-44.689-99.863-99.51-99.863
					c-52.295,0-95.208,40.415-99.226,91.513c-266.372,5.224-622.341,122.449-771.274,175.95
					c134.345-122.651,508.86-423.219,950.66-423.854c7.617,47.513,48.658,83.847,98.183,83.847
					c54.921,0,99.614-44.684,99.614-99.588c0-54.922-44.693-99.609-99.614-99.609c-49.678,0-90.872,36.667-98.231,84.383
					c-295.784,0.308-558.938,131.976-727.681,242.385c-100.573,65.793-180.531,132.173-232.324,178.743
					c39.702-73.785,110.151-186.356,218.625-298.111c168.847-173.915,467.403-381.207,930.208-381.207
					c1.605,0,3.191-0.308,4.693-0.743c6.358,48.713,48.125,86.783,98.659,86.783c54.905,0,99.567-44.793,99.567-99.667
					c0-54.895-44.662-99.53-99.567-99.53c-49.338,0-90.155,36.026-98.027,83.11c-1.729-0.609-3.566-0.997-5.325-0.997
					c-474.4,0-780.28,212.974-953.43,391.598c-119.872,123.75-193.419,246.174-231.64,320.604
					c47.134-541.293,641.847-971.463,1369.249-977.778c9.14,45.68,49.444,80.031,97.621,80.031
					c54.921,0,99.663-44.614,99.663-99.535c0-54.873-44.482-99.563-99.458-99.563c-50.946,0-91.312,38.551-96.987,87.979
					c-774.762,7.152-1400.079,488.121-1400.079,1078.223V252.042z"/>
			</g>
		</g>
	</g>
</g>
</svg>
